<?xml version="1.0" encoding="UTF-8" standalone="no"?>
<!-- Generator: Adobe Illustrator 15.1.0, SVG Export Plug-In . SVG Version: 6.00 Build 0)  -->

<svg
   xmlns:dc="http://purl.org/dc/elements/1.1/"
   xmlns:cc="http://creativecommons.org/ns#"
   xmlns:rdf="http://www.w3.org/1999/02/22-rdf-syntax-ns#"
   xmlns:svg="http://www.w3.org/2000/svg"
   xmlns="http://www.w3.org/2000/svg"
   xmlns:sodipodi="http://sodipodi.sourceforge.net/DTD/sodipodi-0.dtd"
   xmlns:inkscape="http://www.inkscape.org/namespaces/inkscape"
   version="1.1"
   id="Layer_1"
   x="0px"
   y="0px"
   width="280"
   height="70"
   viewBox="0 0 279.99999 70"
   enable-background="new 0 0 595.28 841.89"
   xml:space="preserve"
   inkscape:version="0.48.2 r9819"
   sodipodi:docname="logo.svg"><metadata
   id="metadata27"><rdf:RDF><cc:Work
       rdf:about=""><dc:format>image/svg+xml</dc:format><dc:type
         rdf:resource="http://purl.org/dc/dcmitype/StillImage" /><dc:title /></cc:Work></rdf:RDF></metadata><defs
   id="defs25" /><sodipodi:namedview
   pagecolor="#ffffff"
   bordercolor="#666666"
   borderopacity="1"
   objecttolerance="10"
   gridtolerance="10"
   guidetolerance="10"
   inkscape:pageopacity="0"
   inkscape:pageshadow="2"
   inkscape:window-width="1449"
   inkscape:window-height="879"
   id="namedview23"
   showgrid="false"
   width="340px"
   inkscape:zoom="2.8284271"
   inkscape:cx="161.6999"
   inkscape:cy="58.729009"
   inkscape:window-x="1673"
   inkscape:window-y="1"
   inkscape:window-maximized="0"
   inkscape:current-layer="Layer_1" />
<g
   id="g3"
   transform="matrix(3.4619748,0,0,3.4794517,-863.14789,-1401.7437)">
	<path
   d="m 267.115,403.94 h -17.409 v 17.834 h 17.832 V 403.94 h -0.423 z m -0.423,16.988 H 250.55 v -16.142 h 16.142 v 16.142 z"
   id="path5"
   inkscape:connector-curvature="0" />
	<path
   d="m 286.312,403.94 h -17.41 v 17.834 h 17.832 V 403.94 h -0.422 z m -0.422,16.988 h -16.144 v -16.142 h 16.144 v 16.142 z"
   id="path7"
   inkscape:connector-curvature="0" />
	<g
   id="g9">
		<path
   d="m 310.197,412.678 c 0,5.378 4.375,9.754 9.754,9.754 5.38,0 9.755,-4.376 9.755,-9.754 0,-5.378 -4.375,-9.754 -9.755,-9.754 -5.379,-10e-4 -9.754,4.376 -9.754,9.754 m 0.848,0 c 0,-4.913 3.995,-8.908 8.906,-8.908 4.913,0 8.91,3.995 8.91,8.908 0,4.912 -3.997,8.908 -8.91,8.908 -4.911,0 -8.906,-3.997 -8.906,-8.908"
   id="path11"
   inkscape:connector-curvature="0" />
		<path
   d="m 289.684,412.678 c 0,5.378 4.377,9.754 9.755,9.754 5.377,0 9.755,-4.376 9.755,-9.754 0,-5.378 -4.378,-9.754 -9.755,-9.754 -5.378,-10e-4 -9.755,4.376 -9.755,9.754 m 0.846,0 c 0,-4.913 3.995,-8.908 8.909,-8.908 4.911,0 8.908,3.995 8.908,8.908 0,4.912 -3.997,8.908 -8.908,8.908 -4.914,0 -8.909,-3.997 -8.909,-8.908"
   id="path13"
   inkscape:connector-curvature="0" />
		<polygon
   points="315.643,406.782 316.7,406.782 316.7,412.027 323.203,412.027 323.203,406.782 324.263,406.782 324.263,418.575 323.203,418.575 323.203,413.026 316.7,413.026 316.7,418.575 315.643,418.575 "
   id="polygon15" />
		<polygon
   points="299.936,418.575 298.938,418.575 295.732,411.272 294.871,409.141 294.932,414.191 294.932,418.575 293.903,418.575 293.903,406.782 294.826,406.782 298.304,414.567 299.438,417.426 300.571,414.567 304.05,406.782 304.971,406.782 304.971,418.575 303.944,418.575 303.944,414.191 304.004,409.049 303.14,411.272 "
   id="polygon17" />
		<path
   d="m 261.507,412.858 c -0.177,-0.101 -0.305,-0.154 -0.451,-0.204 v -0.109 c 0.513,-0.228 1.565,-0.845 1.565,-2.583 0,-0.949 -0.382,-1.863 -0.981,-2.345 -0.749,-0.616 -1.729,-0.616 -2.495,-0.631 h -1.849 l -0.287,0.074 h -1.396 l -0.311,-0.074 h -0.932 v 1.048 h 1.231 v 9.436 l -0.211,0.211 h -1.021 v 1.047 h 0.932 l 0.299,-0.073 h 1.397 l 0.298,0.073 h 1.799 c 1.148,-0.017 2.362,-0.049 3.194,-1.247 0.365,-0.515 0.581,-1.213 0.581,-2.028 0.002,-1.182 -0.513,-2.096 -1.362,-2.595 m -0.548,-3.893 c 0.183,0.333 0.249,0.699 0.249,1.031 0,0.399 -0.1,0.948 -0.416,1.364 -0.633,0.798 -1.646,0.798 -2.577,0.798 h -1.216 v -3.963 l 0.211,-0.211 h 1.635 c 0.665,0.033 1.615,0.066 2.114,0.981 m -0.384,8.417 c -0.466,0.284 -1.147,0.299 -1.879,0.299 h -1.697 v -4.423 h 1.98 c 0.615,0.016 1.448,0.049 2.012,0.747 0.333,0.416 0.466,0.932 0.466,1.449 0.001,0.981 -0.432,1.645 -0.882,1.928"
   id="path19"
   inkscape:connector-curvature="0" />
		<path
   d="m 280.696,414.869 c -0.05,0.595 -0.151,1.886 -1.12,2.633 -0.44,0.358 -1.019,0.527 -1.562,0.527 -1.479,0 -2.107,-1.037 -2.412,-1.715 -0.493,-1.12 -0.561,-2.531 -0.561,-3.246 0,-0.525 0.034,-1.849 0.39,-3.021 0.271,-0.866 0.713,-1.698 1.529,-2.104 0.339,-0.187 0.748,-0.256 1.137,-0.256 1.156,0 1.971,0.749 2.327,1.75 0.137,0.391 0.202,0.763 0.271,1.238 h 1.239 v -3.802 h -1.12 l -0.029,0.952 h -0.097 c -0.407,-0.613 -1.284,-1.208 -2.742,-1.208 -1.156,0 -2.089,0.475 -2.667,1.019 -1.222,1.138 -1.494,3.024 -1.597,3.737 -0.068,0.56 -0.102,1.12 -0.102,1.682 0,3.04 0.951,6.044 4.517,6.044 1.7,0 2.514,-0.782 2.836,-1.137 0.935,-1.019 1.036,-2.209 1.122,-3.093 h -1.359"
   id="path21"
   inkscape:connector-curvature="0" />
	</g>
</g>
</svg>